<svg xmlns="http://www.w3.org/2000/svg" xmlns:xlink="http://www.w3.org/1999/xlink" width="130" height="100" viewBox="0 0 130 100">
  <defs>
    <style>
      .cls-1 {
        fill-rule: evenodd;
        filter: url(#filter);
      }
    </style>
    <filter id="filter" x="960" y="4614" width="130" height="100" filterUnits="userSpaceOnUse">
      <feFlood result="flood" flood-color="#fff"/>
      <feComposite result="composite" operator="in" in2="SourceGraphic"/>
      <feBlend result="blend" in2="SourceGraphic"/>
    </filter>
  </defs>
  <path id="Right" class="cls-1" d="M960,4614h130v100H960V4614Zm81.73,55.35h0l-9.09-9.08a0.908,0.908,0,0,0-1.38,1.18,0.474,0.474,0,0,0,.1.1l7.53,7.54h-35.98a0.905,0.905,0,1,0,0,1.81h35.98l-7.53,7.53a0.908,0.908,0,0,0,1.18,1.38,0.943,0.943,0,0,0,.1-0.1l9.09-9.08A0.911,0.911,0,0,0,1041.73,4669.35Z" transform="translate(-960 -4614)"/>
</svg>
